<?xml version="1.0" encoding="utf-8"?>
<!-- Generator: Adobe Illustrator 27.1.1, SVG Export Plug-In . SVG Version: 6.00 Build 0)  -->
<svg version="1.1" id="Calque_1" xmlns="http://www.w3.org/2000/svg" xmlns:xlink="http://www.w3.org/1999/xlink" x="0px" y="0px"
	 viewBox="0 0 141.7 141.7" style="enable-background:new 0 0 141.7 141.7;" xml:space="preserve">
<style type="text/css">
	.st0{fill:#243265;}
	.st1{fill:url(#SVGID_1_);}
	.st2{fill:url(#SVGID_00000003783730113156706700000009736100440469922990_);}
	.st3{fill:url(#SVGID_00000010997901676258218910000007874564022800467120_);}
	.st4{fill:url(#SVGID_00000121273611453498002930000018395643087609494656_);}
	.st5{fill:#621311;}
	.st6{opacity:0.9;fill:url(#SVGID_00000104686815129786717350000005407154302381255342_);enable-background:new    ;}
	.st7{fill:url(#SVGID_00000113318870947236271350000011401066226028208830_);}
</style>
<g id="v2-vect">
	<g>
		<path class="st0" d="M26.2,100.5c-0.8-0.3-1.9-0.4-2.5-0.4c-1.1,0-1.5,0.4-1.5,1c0,1.8,5,1.1,5,4.8c0,2-1.6,3.5-4.7,3.5
			c-1.1,0-2.3-0.2-3.2-0.3l0.3-2.4c1.1,0.4,2.3,0.6,3.1,0.6c1,0,1.5-0.4,1.5-1.1c0-1.8-4.9-1.2-4.9-4.8c0-1.9,1.5-3.4,4.6-3.4
			c0.8,0,1.8,0.1,2.6,0.3C26.5,98.3,26.2,100.5,26.2,100.5z"/>
		<path class="st0" d="M42.6,109.2h-3.3l-1.7-5c-0.2-0.8-0.5-1.7-0.6-2.5h0c-0.2,0.9-0.5,2-0.8,2.9l-1.4,4.6h-3.2l-3.5-10.9h3.3
			l1.3,4.6c0.3,1,0.6,2.2,0.8,3.1h0c0.2-1,0.5-2.2,0.8-3.1l1.4-4.5h2.9l1.5,4.5c0.4,1.2,0.6,2.2,0.8,3.2H41c0.2-1.1,0.5-2.1,0.8-3.1
			l1.3-4.6h3L42.6,109.2L42.6,109.2z"/>
		<path class="st0" d="M49.5,96.6c-1,0-1.8-0.8-1.8-1.7c0-0.9,0.8-1.7,1.8-1.7c1,0,1.9,0.8,1.9,1.7C51.4,95.9,50.5,96.6,49.5,96.6z
			 M48,109.2V98.2h3v10.9H48z"/>
		<path class="st0" d="M60.5,100.5c-0.8-0.3-1.9-0.4-2.5-0.4c-1.1,0-1.5,0.4-1.5,1c0,1.8,5,1.1,5,4.8c0,2-1.6,3.5-4.7,3.5
			c-1.1,0-2.3-0.2-3.2-0.3l0.3-2.4c1.1,0.4,2.3,0.6,3.1,0.6c1,0,1.5-0.4,1.5-1.1c0-1.8-4.9-1.2-4.9-4.8c0-1.9,1.5-3.4,4.6-3.4
			c0.8,0,1.8,0.1,2.6,0.3L60.5,100.5z"/>
		<path class="st0" d="M70.3,100.5c-0.8-0.3-1.9-0.4-2.5-0.4c-1.1,0-1.5,0.4-1.5,1c0,1.8,5,1.1,5,4.8c0,2-1.6,3.5-4.7,3.5
			c-1.1,0-2.3-0.2-3.2-0.3l0.3-2.4c1.1,0.4,2.3,0.6,3.1,0.6c1,0,1.5-0.4,1.5-1.1c0-1.8-4.9-1.2-4.9-4.8c0-1.9,1.5-3.4,4.6-3.4
			c0.8,0,1.8,0.1,2.6,0.3L70.3,100.5z"/>
		<path class="st0" d="M80,100.5c-0.8-0.3-1.9-0.4-2.5-0.4c-1.1,0-1.5,0.4-1.5,1c0,1.8,5,1.1,5,4.8c0,2-1.6,3.5-4.7,3.5
			c-1.1,0-2.3-0.2-3.2-0.3l0.3-2.4c1.1,0.4,2.3,0.6,3.1,0.6c1,0,1.5-0.4,1.5-1.1c0-1.8-4.9-1.2-4.9-4.8c0-1.9,1.5-3.4,4.6-3.4
			c0.8,0,1.8,0.1,2.6,0.3L80,100.5z"/>
		<path class="st0" d="M91.1,108.8c-1,0.4-2.2,0.6-3.2,0.6c-3.3,0-5.2-1.9-5.2-5.4S85,98,88.5,98c0.8,0,1.7,0.2,2.5,0.4l-0.5,2.4
			c-0.7-0.3-1.4-0.5-2.1-0.5c-1.7,0-2.7,1.2-2.7,3.3s1,3.2,2.7,3.2c0.7,0,1.4-0.2,2.2-0.5L91.1,108.8L91.1,108.8z"/>
		<path class="st0" d="M99.5,109.2c0-0.6,0-1.3,0.1-1.9l0,0c-0.6,1.2-2,2.1-3.7,2.1c-2.1,0-3.3-1.3-3.3-3.1c0-2.6,2.6-3.8,6.7-3.8
			V102c0-1.3-0.5-1.9-2.1-1.9c-1,0-2.4,0.3-3.5,0.7l-0.5-2.1c1.3-0.4,2.9-0.8,4.3-0.8c3.6,0,4.7,1.4,4.7,3.8v4.5
			c0,0.9,0,1.9,0.1,2.8L99.5,109.2L99.5,109.2z M99.3,104.3c-3,0-3.8,0.7-3.8,1.7c0,0.7,0.5,1.3,1.4,1.3c1.4,0,2.4-1.3,2.4-2.6
			V104.3L99.3,104.3z"/>
		<path class="st0" d="M119.5,109.2v-6.9c0-1.2-0.3-1.9-1.4-1.9c-1.3,0-2.7,1.4-2.7,3.6v5.2h-2.9v-6.9c0-1.2-0.3-1.9-1.4-1.9
			c-1.4,0-2.7,1.5-2.7,3.6v5.2h-3V98.2h2.8c0,0.5-0.1,1.3-0.1,2l0,0c0.7-1.3,2.1-2.2,3.8-2.2c1.8,0,2.9,0.8,3.2,2.2
			c0.5-1.1,1.8-2.2,3.8-2.2c2.5,0,3.5,1.4,3.5,3.6v7.6C122.5,109.2,119.5,109.2,119.5,109.2z"/>
	</g>
	<g id="vectors">
		<g>
			<g>
				<g>
					
						<linearGradient id="SVGID_1_" gradientUnits="userSpaceOnUse" x1="86.4152" y1="106.6515" x2="60.0079" y2="71.2132" gradientTransform="matrix(-1 0 0 1 145.1923 -38.8794)">
						<stop  offset="0" style="stop-color:#53C2F0"/>
						<stop  offset="0.82" style="stop-color:#21264C"/>
					</linearGradient>
					<path class="st1" d="M73.2,32.3c0,0-25.1,2.6-23.7,18.9c0.3,4.5,3.6,8.6,7.9,11.8c5.4,4.1,19.1,15.6,19.1,15.6
						c-3.3-3.2-3.6-7.1-3.6-7.1C73,70.8,73.2,32.3,73.2,32.3z"/>
					
						<linearGradient id="SVGID_00000118364028271374572090000007258478190022230659_" gradientUnits="userSpaceOnUse" x1="75.1859" y1="114.4999" x2="69.5318" y2="122.5347" gradientTransform="matrix(-1 0 0 1 145.1923 -38.8794)">
						<stop  offset="0" style="stop-color:#243877"/>
						<stop  offset="1" style="stop-color:#55C2F0"/>
					</linearGradient>
					<path style="fill:url(#SVGID_00000118364028271374572090000007258478190022230659_);" d="M73.6,87.1V76c0,0,8.8,6.9,4.5,9.9
						C75.8,87.6,73.7,87.1,73.6,87.1z"/>
				</g>
				
					<linearGradient id="SVGID_00000166643450180867229910000009218639095389200526_" gradientUnits="userSpaceOnUse" x1="83.5134" y1="115.1668" x2="71.1184" y2="104.8808" gradientTransform="matrix(-1 0 0 1 145.1923 -38.8794)">
					<stop  offset="5.000000e-02" style="stop-color:#CF1324"/>
					<stop  offset="0.19" style="stop-color:#CA1223"/>
					<stop  offset="0.34" style="stop-color:#BE1221"/>
					<stop  offset="0.48" style="stop-color:#AA111E"/>
					<stop  offset="0.63" style="stop-color:#8E0F1A"/>
					<stop  offset="0.77" style="stop-color:#6A0E15"/>
					<stop  offset="0.92" style="stop-color:#3E0C0E"/>
					<stop  offset="0.99" style="stop-color:#240B0B"/>
				</linearGradient>
				<path style="fill:url(#SVGID_00000166643450180867229910000009218639095389200526_);" d="M73.6,81.8c0,0-8.8,2.9-14.8-6.4
					c-1.5-2.6-1.8-7-0.6-11.6C60.4,65.1,73.6,76,73.6,76L73.6,81.8L73.6,81.8z"/>
				
					<linearGradient id="SVGID_00000089546429281053758720000009644717780423235513_" gradientUnits="userSpaceOnUse" x1="53.4361" y1="111.5996" x2="75.1985" y2="103.2284" gradientTransform="matrix(-1 0 0 1 145.1923 -38.8794)">
					<stop  offset="5.000000e-02" style="stop-color:#CF1324"/>
					<stop  offset="0.19" style="stop-color:#CA1223"/>
					<stop  offset="0.34" style="stop-color:#BE1221"/>
					<stop  offset="0.49" style="stop-color:#AA111E"/>
					<stop  offset="0.63" style="stop-color:#8E0F1A"/>
					<stop  offset="0.78" style="stop-color:#6A0E15"/>
					<stop  offset="0.92" style="stop-color:#3E0C0E"/>
					<stop  offset="1" style="stop-color:#240B0B"/>
				</linearGradient>
				<path style="fill:url(#SVGID_00000089546429281053758720000009644717780423235513_);" d="M78.9,82.2c0,0,14.9-9.1,14-15.3
					C92.6,65,92,62.6,88.8,60c-1-0.8-6-4.9-6.2-5.2c-0.3,0.4-2.8,2.6-2.8,2.6s4.5,2.5,4.8,4.4c0.2,1.9,0.9,3-5.5,5.3
					c-0.8,0.5-1.2,1.4-1.3,1.7c-1.1,2.5-1.7,4.2-4.3,4.7c-0.5,0.3,1,2.9,3.1,5.1C77.6,79.8,78.3,81.5,78.9,82.2L78.9,82.2z"/>
				<path class="st5" d="M80,57.5c0,0-2.3-0.7-2.8-5.9c-0.2-0.7-1.5-2.9-3.9-3.4c-0.4-0.1,0-9.8,0-9.8s2.8,0.8,4,4.8
					c0.7,3.3,1.2,7.3,5.5,11.6C82.3,55.4,80,57.5,80,57.5z"/>
				
					<linearGradient id="SVGID_00000066496525512972592170000014343975255782791847_" gradientUnits="userSpaceOnUse" x1="61.6243" y1="91.5205" x2="69.7367" y2="74.1183" gradientTransform="matrix(-1 0 0 1 145.1923 -38.8794)">
					<stop  offset="0" style="stop-color:#53C2F0"/>
					<stop  offset="0.13" style="stop-color:#47A0D3"/>
					<stop  offset="0.31" style="stop-color:#3B7BB2"/>
					<stop  offset="0.49" style="stop-color:#315D98"/>
					<stop  offset="0.67" style="stop-color:#2A4886"/>
					<stop  offset="0.84" style="stop-color:#263C7B"/>
					<stop  offset="1" style="stop-color:#253878"/>
				</linearGradient>
				
					<path style="opacity:0.9;fill:url(#SVGID_00000066496525512972592170000014343975255782791847_);enable-background:new    ;" d="
					M82.6,54.8c0,0,4.3-4.8,0.5-9.8c-0.6-0.8-3.7-4.5-9.1-6.1c0.9,0.1,3,3.3,3.3,5.4c0.1,0.8,0.2,1.4,0.4,2c0,0.1,0.2,0.9,0.4,1.4
					C79.1,51.5,82.6,54.8,82.6,54.8z"/>
			</g>
			
				<linearGradient id="SVGID_00000054961868508853217790000009006671619906579844_" gradientUnits="userSpaceOnUse" x1="78.5662" y1="110.3983" x2="70.855" y2="72.45" gradientTransform="matrix(-1 0 0 1 145.1923 -38.8794)">
				<stop  offset="0" style="stop-color:#53C2F0"/>
				<stop  offset="2.000000e-02" style="stop-color:#50BBE9"/>
				<stop  offset="0.19" style="stop-color:#3F8DBA"/>
				<stop  offset="0.35" style="stop-color:#316693"/>
				<stop  offset="0.52" style="stop-color:#274875"/>
				<stop  offset="0.68" style="stop-color:#1F335F"/>
				<stop  offset="0.83" style="stop-color:#1A2652"/>
				<stop  offset="0.97" style="stop-color:#19224E"/>
			</linearGradient>
			<path style="fill:url(#SVGID_00000054961868508853217790000009006671619906579844_);" d="M58.2,63.7c0,0,4.8-17.5,14.9-25.3
				C73,44.6,73,68.6,73.3,71.8c0.1,1,0.1,2.1,0.4,2.9c0.7,1.7,1.6,2.8,1.6,2.8S58.2,63.7,58.2,63.7z"/>
		</g>
	</g>
</g>
</svg>
